<svg xmlns="http://www.w3.org/2000/svg" xmlns:xlink="http://www.w3.org/1999/xlink" width="500" zoomAndPan="magnify" viewBox="0 0 375 374.999991" height="500" preserveAspectRatio="xMidYMid meet" version="1.0"><defs><g/><clipPath id="6addbe1ec2"><path d="M 19.679688 45 L 354.941406 45 L 354.941406 365 L 19.679688 365 Z M 19.679688 45 " clip-rule="nonzero"/></clipPath><clipPath id="cf18c10714"><path d="M 14 54.4375 L 368 54.4375 L 368 338.679688 L 14 338.679688 Z M 14 54.4375 " clip-rule="nonzero"/></clipPath></defs><rect x="-37.5" width="450" fill="#ffffff" y="-37.499999" height="449.999989" fill-opacity="1"/><rect x="-37.5" width="450" fill="#ffffff" y="-37.499999" height="449.999989" fill-opacity="1"/><g clip-path="url(#6addbe1ec2)"><path fill="#ffffff" d="M 316.960938 45.109375 L 58.03125 45.109375 C 36.875 45.109375 19.679688 62.273438 19.679688 83.457031 L 19.679688 258.210938 C 19.679688 279.398438 36.875 296.558594 58.03125 296.558594 L 214.488281 296.558594 L 286.566406 364.765625 L 286.566406 296.558594 L 316.929688 296.558594 C 338.113281 296.558594 355.308594 279.398438 355.308594 258.210938 L 355.308594 83.457031 C 355.308594 62.273438 338.113281 45.109375 316.929688 45.109375 L 316.960938 45.109375 " fill-opacity="1" fill-rule="nonzero"/></g><g clip-path="url(#cf18c10714)"><path fill="#21244d" d="M 329.300781 54.464844 L 52.195312 54.464844 C 31.371094 54.464844 14.425781 71.410156 14.425781 92.230469 L 14.425781 238.492188 C 14.425781 259.316406 31.371094 276.257812 52.195312 276.257812 L 52.390625 276.257812 L 31.546875 339.105469 L 162.683594 276.257812 L 329.300781 276.257812 C 350.125 276.257812 367.066406 259.316406 367.066406 238.492188 L 367.066406 92.230469 C 367.066406 71.40625 350.125 54.464844 329.300781 54.464844 Z M 358.761719 238.492188 C 358.761719 254.738281 345.546875 267.953125 329.300781 267.953125 L 159.871094 267.832031 C 159.734375 268.078125 45.515625 323.199219 45.515625 323.199219 C 45.515625 323.199219 63.417969 268.707031 63.726562 267.929688 L 52.195312 267.949219 C 35.949219 267.949219 22.734375 254.734375 22.734375 238.492188 L 22.734375 92.230469 C 22.734375 75.988281 35.949219 62.773438 52.195312 62.773438 L 329.300781 62.773438 C 345.546875 62.773438 358.761719 75.988281 358.761719 92.230469 Z M 358.761719 238.492188 " fill-opacity="1" fill-rule="nonzero"/></g><g fill="#9543a7" fill-opacity="1"><g transform="translate(76.926964, 227.946981)"><g><path d="M 11.3125 -12.8125 C 11.625 -12.644531 11.78125 -12.382812 11.78125 -12.03125 C 11.78125 -11.800781 11.703125 -11.585938 11.546875 -11.390625 C 11.390625 -11.179688 11.175781 -11.078125 10.90625 -11.078125 C 10.71875 -11.078125 10.539062 -11.125 10.375 -11.21875 C 9.570312 -11.664062 8.707031 -11.890625 7.78125 -11.890625 C 6.800781 -11.890625 5.9375 -11.675781 5.1875 -11.25 C 4.445312 -10.820312 3.867188 -10.222656 3.453125 -9.453125 C 3.046875 -8.679688 2.84375 -7.796875 2.84375 -6.796875 C 2.84375 -5.722656 3.054688 -4.796875 3.484375 -4.015625 C 3.910156 -3.242188 4.5 -2.648438 5.25 -2.234375 C 6 -1.828125 6.84375 -1.625 7.78125 -1.625 C 8.738281 -1.625 9.601562 -1.859375 10.375 -2.328125 C 10.53125 -2.410156 10.703125 -2.453125 10.890625 -2.453125 C 11.171875 -2.453125 11.394531 -2.34375 11.5625 -2.125 C 11.71875 -1.925781 11.796875 -1.71875 11.796875 -1.5 C 11.796875 -1.34375 11.753906 -1.195312 11.671875 -1.0625 C 11.585938 -0.925781 11.472656 -0.816406 11.328125 -0.734375 C 10.828125 -0.453125 10.257812 -0.226562 9.625 -0.0625 C 9 0.101562 8.382812 0.1875 7.78125 0.1875 C 6.519531 0.1875 5.359375 -0.0859375 4.296875 -0.640625 C 3.242188 -1.203125 2.398438 -2.015625 1.765625 -3.078125 C 1.140625 -4.140625 0.828125 -5.378906 0.828125 -6.796875 C 0.828125 -8.109375 1.128906 -9.289062 1.734375 -10.34375 C 2.335938 -11.40625 3.164062 -12.238281 4.21875 -12.84375 C 5.28125 -13.445312 6.46875 -13.75 7.78125 -13.75 C 9.03125 -13.75 10.207031 -13.4375 11.3125 -12.8125 Z M 11.3125 -12.8125 "/></g></g></g><g fill="#9543a7" fill-opacity="1"><g transform="translate(98.553704, 227.946981)"><g><path d="M 6.453125 -10.359375 C 8.734375 -10.359375 9.875 -8.945312 9.875 -6.125 L 9.875 -0.9375 C 9.875 -0.675781 9.785156 -0.453125 9.609375 -0.265625 C 9.429688 -0.0859375 9.207031 0 8.9375 0 C 8.675781 0 8.457031 -0.0859375 8.28125 -0.265625 C 8.113281 -0.453125 8.03125 -0.675781 8.03125 -0.9375 L 8.03125 -6.125 C 8.03125 -7.8125 7.316406 -8.65625 5.890625 -8.65625 C 5.128906 -8.65625 4.492188 -8.410156 3.984375 -7.921875 C 3.484375 -7.429688 3.234375 -6.832031 3.234375 -6.125 L 3.234375 -0.9375 C 3.234375 -0.675781 3.144531 -0.453125 2.96875 -0.265625 C 2.789062 -0.0859375 2.566406 0 2.296875 0 C 2.023438 0 1.800781 -0.0859375 1.625 -0.265625 C 1.457031 -0.441406 1.375 -0.664062 1.375 -0.9375 L 1.375 -13.453125 C 1.375 -13.710938 1.460938 -13.929688 1.640625 -14.109375 C 1.816406 -14.296875 2.035156 -14.390625 2.296875 -14.390625 C 2.566406 -14.390625 2.789062 -14.296875 2.96875 -14.109375 C 3.144531 -13.929688 3.234375 -13.710938 3.234375 -13.453125 L 3.234375 -8.53125 C 3.554688 -9.039062 4.007812 -9.472656 4.59375 -9.828125 C 5.175781 -10.179688 5.796875 -10.359375 6.453125 -10.359375 Z M 6.453125 -10.359375 "/></g></g></g><g fill="#9543a7" fill-opacity="1"><g transform="translate(119.034197, 227.946981)"><g><path d="M 9.640625 -10.328125 C 9.910156 -10.328125 10.132812 -10.238281 10.3125 -10.0625 C 10.488281 -9.882812 10.578125 -9.65625 10.578125 -9.375 L 10.578125 -0.9375 C 10.578125 -0.675781 10.488281 -0.453125 10.3125 -0.265625 C 10.132812 -0.0859375 9.910156 0 9.640625 0 C 9.367188 0 9.148438 -0.0859375 8.984375 -0.265625 C 8.816406 -0.441406 8.734375 -0.664062 8.734375 -0.9375 L 8.734375 -1.4375 C 8.390625 -0.988281 7.925781 -0.601562 7.34375 -0.28125 C 6.757812 0.03125 6.132812 0.1875 5.46875 0.1875 C 4.582031 0.1875 3.78125 -0.0351562 3.0625 -0.484375 C 2.34375 -0.941406 1.78125 -1.570312 1.375 -2.375 C 0.96875 -3.1875 0.765625 -4.097656 0.765625 -5.109375 C 0.765625 -6.117188 0.96875 -7.03125 1.375 -7.84375 C 1.78125 -8.65625 2.335938 -9.285156 3.046875 -9.734375 C 3.765625 -10.191406 4.550781 -10.421875 5.40625 -10.421875 C 6.09375 -10.421875 6.726562 -10.273438 7.3125 -9.984375 C 7.90625 -9.703125 8.378906 -9.34375 8.734375 -8.90625 L 8.734375 -9.375 C 8.734375 -9.644531 8.816406 -9.867188 8.984375 -10.046875 C 9.148438 -10.234375 9.367188 -10.328125 9.640625 -10.328125 Z M 5.671875 -1.515625 C 6.285156 -1.515625 6.828125 -1.671875 7.296875 -1.984375 C 7.773438 -2.296875 8.144531 -2.722656 8.40625 -3.265625 C 8.675781 -3.804688 8.8125 -4.421875 8.8125 -5.109375 C 8.8125 -5.785156 8.675781 -6.394531 8.40625 -6.9375 C 8.144531 -7.476562 7.773438 -7.90625 7.296875 -8.21875 C 6.828125 -8.539062 6.285156 -8.703125 5.671875 -8.703125 C 5.066406 -8.703125 4.523438 -8.546875 4.046875 -8.234375 C 3.578125 -7.929688 3.207031 -7.503906 2.9375 -6.953125 C 2.675781 -6.410156 2.546875 -5.796875 2.546875 -5.109375 C 2.546875 -4.421875 2.675781 -3.804688 2.9375 -3.265625 C 3.207031 -2.722656 3.578125 -2.296875 4.046875 -1.984375 C 4.523438 -1.671875 5.066406 -1.515625 5.671875 -1.515625 Z M 5.671875 -1.515625 "/></g></g></g><g fill="#9543a7" fill-opacity="1"><g transform="translate(140.194676, 227.946981)"><g><path d="M 4.140625 -8.375 L 4.140625 -2.578125 C 4.140625 -1.929688 4.429688 -1.609375 5.015625 -1.609375 C 5.109375 -1.609375 5.234375 -1.628906 5.390625 -1.671875 C 5.546875 -1.722656 5.664062 -1.75 5.75 -1.75 C 5.914062 -1.75 6.054688 -1.675781 6.171875 -1.53125 C 6.296875 -1.394531 6.359375 -1.210938 6.359375 -0.984375 C 6.359375 -0.710938 6.203125 -0.476562 5.890625 -0.28125 C 5.578125 -0.09375 5.226562 0 4.84375 0 C 4.414062 0 4.019531 -0.0390625 3.65625 -0.125 C 3.300781 -0.21875 2.984375 -0.445312 2.703125 -0.8125 C 2.429688 -1.1875 2.296875 -1.75 2.296875 -2.5 L 2.296875 -8.375 L 1.171875 -8.375 C 0.921875 -8.375 0.710938 -8.453125 0.546875 -8.609375 C 0.390625 -8.773438 0.3125 -8.984375 0.3125 -9.234375 C 0.3125 -9.484375 0.390625 -9.679688 0.546875 -9.828125 C 0.710938 -9.984375 0.921875 -10.0625 1.171875 -10.0625 L 2.296875 -10.0625 L 2.296875 -11.703125 C 2.296875 -11.960938 2.378906 -12.179688 2.546875 -12.359375 C 2.722656 -12.546875 2.953125 -12.640625 3.234375 -12.640625 C 3.484375 -12.640625 3.695312 -12.546875 3.875 -12.359375 C 4.050781 -12.179688 4.140625 -11.960938 4.140625 -11.703125 L 4.140625 -10.0625 L 5.75 -10.0625 C 6 -10.0625 6.203125 -9.976562 6.359375 -9.8125 C 6.523438 -9.65625 6.609375 -9.457031 6.609375 -9.21875 C 6.609375 -8.96875 6.523438 -8.765625 6.359375 -8.609375 C 6.203125 -8.453125 6 -8.375 5.75 -8.375 Z M 4.140625 -8.375 "/></g></g></g><g fill="#9543a7" fill-opacity="1"><g transform="translate(156.809046, 227.946981)"><g><path d="M 4.140625 -8.375 L 4.140625 -2.578125 C 4.140625 -1.929688 4.429688 -1.609375 5.015625 -1.609375 C 5.109375 -1.609375 5.234375 -1.628906 5.390625 -1.671875 C 5.546875 -1.722656 5.664062 -1.75 5.75 -1.75 C 5.914062 -1.75 6.054688 -1.675781 6.171875 -1.53125 C 6.296875 -1.394531 6.359375 -1.210938 6.359375 -0.984375 C 6.359375 -0.710938 6.203125 -0.476562 5.890625 -0.28125 C 5.578125 -0.09375 5.226562 0 4.84375 0 C 4.414062 0 4.019531 -0.0390625 3.65625 -0.125 C 3.300781 -0.21875 2.984375 -0.445312 2.703125 -0.8125 C 2.429688 -1.1875 2.296875 -1.75 2.296875 -2.5 L 2.296875 -8.375 L 1.171875 -8.375 C 0.921875 -8.375 0.710938 -8.453125 0.546875 -8.609375 C 0.390625 -8.773438 0.3125 -8.984375 0.3125 -9.234375 C 0.3125 -9.484375 0.390625 -9.679688 0.546875 -9.828125 C 0.710938 -9.984375 0.921875 -10.0625 1.171875 -10.0625 L 2.296875 -10.0625 L 2.296875 -11.703125 C 2.296875 -11.960938 2.378906 -12.179688 2.546875 -12.359375 C 2.722656 -12.546875 2.953125 -12.640625 3.234375 -12.640625 C 3.484375 -12.640625 3.695312 -12.546875 3.875 -12.359375 C 4.050781 -12.179688 4.140625 -11.960938 4.140625 -11.703125 L 4.140625 -10.0625 L 5.75 -10.0625 C 6 -10.0625 6.203125 -9.976562 6.359375 -9.8125 C 6.523438 -9.65625 6.609375 -9.457031 6.609375 -9.21875 C 6.609375 -8.96875 6.523438 -8.765625 6.359375 -8.609375 C 6.203125 -8.453125 6 -8.375 5.75 -8.375 Z M 4.140625 -8.375 "/></g></g></g><g fill="#9543a7" fill-opacity="1"><g transform="translate(173.423411, 227.946981)"><g><path d="M 3.125 -0.9375 C 3.125 -0.675781 3.035156 -0.453125 2.859375 -0.265625 C 2.691406 -0.0859375 2.472656 0 2.203125 0 C 1.941406 0 1.722656 -0.0859375 1.546875 -0.265625 C 1.367188 -0.453125 1.28125 -0.675781 1.28125 -0.9375 L 1.28125 -9.34375 C 1.28125 -9.601562 1.367188 -9.820312 1.546875 -10 C 1.722656 -10.1875 1.941406 -10.28125 2.203125 -10.28125 C 2.472656 -10.28125 2.691406 -10.1875 2.859375 -10 C 3.035156 -9.820312 3.125 -9.601562 3.125 -9.34375 Z M 2.203125 -11.5625 C 1.828125 -11.5625 1.554688 -11.628906 1.390625 -11.765625 C 1.222656 -11.898438 1.140625 -12.117188 1.140625 -12.421875 L 1.140625 -12.734375 C 1.140625 -13.046875 1.226562 -13.265625 1.40625 -13.390625 C 1.582031 -13.523438 1.851562 -13.59375 2.21875 -13.59375 C 2.582031 -13.59375 2.84375 -13.519531 3 -13.375 C 3.164062 -13.238281 3.25 -13.023438 3.25 -12.734375 L 3.25 -12.421875 C 3.25 -12.109375 3.160156 -11.882812 2.984375 -11.75 C 2.816406 -11.625 2.554688 -11.5625 2.203125 -11.5625 Z M 2.203125 -11.5625 "/></g></g></g><g fill="#9543a7" fill-opacity="1"><g transform="translate(187.065318, 227.946981)"><g><path d="M 6.5625 -10.421875 C 8.894531 -10.421875 10.0625 -9.019531 10.0625 -6.21875 L 10.0625 -0.9375 C 10.0625 -0.675781 9.972656 -0.453125 9.796875 -0.265625 C 9.628906 -0.0859375 9.410156 0 9.140625 0 C 8.878906 0 8.660156 -0.0859375 8.484375 -0.265625 C 8.304688 -0.453125 8.21875 -0.675781 8.21875 -0.9375 L 8.21875 -6.203125 C 8.21875 -6.960938 8.039062 -7.566406 7.6875 -8.015625 C 7.34375 -8.472656 6.773438 -8.703125 5.984375 -8.703125 C 5.460938 -8.703125 4.992188 -8.585938 4.578125 -8.359375 C 4.160156 -8.140625 3.832031 -7.835938 3.59375 -7.453125 C 3.351562 -7.066406 3.234375 -6.648438 3.234375 -6.203125 L 3.234375 -0.9375 C 3.234375 -0.675781 3.144531 -0.453125 2.96875 -0.265625 C 2.789062 -0.0859375 2.566406 0 2.296875 0 C 2.023438 0 1.800781 -0.0859375 1.625 -0.265625 C 1.457031 -0.441406 1.375 -0.664062 1.375 -0.9375 L 1.375 -9.25 C 1.375 -9.507812 1.460938 -9.726562 1.640625 -9.90625 C 1.816406 -10.09375 2.035156 -10.1875 2.296875 -10.1875 C 2.566406 -10.1875 2.789062 -10.09375 2.96875 -9.90625 C 3.144531 -9.726562 3.234375 -9.507812 3.234375 -9.25 L 3.234375 -8.578125 C 3.566406 -9.085938 4.035156 -9.519531 4.640625 -9.875 C 5.242188 -10.238281 5.882812 -10.421875 6.5625 -10.421875 Z M 6.5625 -10.421875 "/></g></g></g><g fill="#9543a7" fill-opacity="1"><g transform="translate(207.74009, 227.946981)"><g><path d="M 9.890625 -10.328125 C 10.160156 -10.328125 10.382812 -10.238281 10.5625 -10.0625 C 10.738281 -9.882812 10.828125 -9.65625 10.828125 -9.375 L 10.828125 -0.8125 C 10.828125 0.238281 10.601562 1.113281 10.15625 1.8125 C 9.707031 2.519531 9.097656 3.039062 8.328125 3.375 C 7.566406 3.71875 6.707031 3.890625 5.75 3.890625 C 5.226562 3.890625 4.617188 3.796875 3.921875 3.609375 C 3.234375 3.429688 2.796875 3.242188 2.609375 3.046875 C 2.203125 2.835938 2 2.582031 2 2.28125 C 2 2.195312 2.023438 2.09375 2.078125 1.96875 C 2.222656 1.644531 2.460938 1.484375 2.796875 1.484375 C 2.960938 1.484375 3.144531 1.519531 3.34375 1.59375 C 4.375 2 5.179688 2.203125 5.765625 2.203125 C 6.804688 2.203125 7.601562 1.953125 8.15625 1.453125 C 8.707031 0.953125 8.984375 0.265625 8.984375 -0.609375 L 8.984375 -1.65625 C 8.710938 -1.144531 8.253906 -0.707031 7.609375 -0.34375 C 6.960938 0.0078125 6.285156 0.1875 5.578125 0.1875 C 4.679688 0.1875 3.863281 -0.0351562 3.125 -0.484375 C 2.382812 -0.941406 1.804688 -1.570312 1.390625 -2.375 C 0.972656 -3.1875 0.765625 -4.097656 0.765625 -5.109375 C 0.765625 -6.117188 0.972656 -7.03125 1.390625 -7.84375 C 1.804688 -8.65625 2.378906 -9.285156 3.109375 -9.734375 C 3.847656 -10.191406 4.660156 -10.421875 5.546875 -10.421875 C 6.253906 -10.421875 6.914062 -10.257812 7.53125 -9.9375 C 8.144531 -9.613281 8.628906 -9.21875 8.984375 -8.75 L 8.984375 -9.375 C 8.984375 -9.644531 9.066406 -9.867188 9.234375 -10.046875 C 9.398438 -10.234375 9.617188 -10.328125 9.890625 -10.328125 Z M 5.796875 -1.515625 C 6.429688 -1.515625 6.992188 -1.664062 7.484375 -1.96875 C 7.972656 -2.28125 8.359375 -2.707031 8.640625 -3.25 C 8.921875 -3.800781 9.0625 -4.421875 9.0625 -5.109375 C 9.0625 -5.796875 8.921875 -6.410156 8.640625 -6.953125 C 8.359375 -7.503906 7.972656 -7.929688 7.484375 -8.234375 C 6.992188 -8.546875 6.429688 -8.703125 5.796875 -8.703125 C 5.171875 -8.703125 4.609375 -8.546875 4.109375 -8.234375 C 3.617188 -7.929688 3.234375 -7.503906 2.953125 -6.953125 C 2.679688 -6.398438 2.546875 -5.785156 2.546875 -5.109375 C 2.546875 -4.429688 2.679688 -3.816406 2.953125 -3.265625 C 3.234375 -2.722656 3.617188 -2.296875 4.109375 -1.984375 C 4.609375 -1.671875 5.171875 -1.515625 5.796875 -1.515625 Z M 5.796875 -1.515625 "/></g></g></g><g fill="#9543a7" fill-opacity="1"><g transform="translate(229.153123, 227.946981)"><g/></g></g><g fill="#9543a7" fill-opacity="1"><g transform="translate(243.766432, 227.946981)"><g><path d="M 9.640625 -10.328125 C 9.910156 -10.328125 10.132812 -10.238281 10.3125 -10.0625 C 10.488281 -9.882812 10.578125 -9.65625 10.578125 -9.375 L 10.578125 -0.9375 C 10.578125 -0.675781 10.488281 -0.453125 10.3125 -0.265625 C 10.132812 -0.0859375 9.910156 0 9.640625 0 C 9.367188 0 9.148438 -0.0859375 8.984375 -0.265625 C 8.816406 -0.441406 8.734375 -0.664062 8.734375 -0.9375 L 8.734375 -1.4375 C 8.390625 -0.988281 7.925781 -0.601562 7.34375 -0.28125 C 6.757812 0.03125 6.132812 0.1875 5.46875 0.1875 C 4.582031 0.1875 3.78125 -0.0351562 3.0625 -0.484375 C 2.34375 -0.941406 1.78125 -1.570312 1.375 -2.375 C 0.96875 -3.1875 0.765625 -4.097656 0.765625 -5.109375 C 0.765625 -6.117188 0.96875 -7.03125 1.375 -7.84375 C 1.78125 -8.65625 2.335938 -9.285156 3.046875 -9.734375 C 3.765625 -10.191406 4.550781 -10.421875 5.40625 -10.421875 C 6.09375 -10.421875 6.726562 -10.273438 7.3125 -9.984375 C 7.90625 -9.703125 8.378906 -9.34375 8.734375 -8.90625 L 8.734375 -9.375 C 8.734375 -9.644531 8.816406 -9.867188 8.984375 -10.046875 C 9.148438 -10.234375 9.367188 -10.328125 9.640625 -10.328125 Z M 5.671875 -1.515625 C 6.285156 -1.515625 6.828125 -1.671875 7.296875 -1.984375 C 7.773438 -2.296875 8.144531 -2.722656 8.40625 -3.265625 C 8.675781 -3.804688 8.8125 -4.421875 8.8125 -5.109375 C 8.8125 -5.785156 8.675781 -6.394531 8.40625 -6.9375 C 8.144531 -7.476562 7.773438 -7.90625 7.296875 -8.21875 C 6.828125 -8.539062 6.285156 -8.703125 5.671875 -8.703125 C 5.066406 -8.703125 4.523438 -8.546875 4.046875 -8.234375 C 3.578125 -7.929688 3.207031 -7.503906 2.9375 -6.953125 C 2.675781 -6.410156 2.546875 -5.796875 2.546875 -5.109375 C 2.546875 -4.421875 2.675781 -3.804688 2.9375 -3.265625 C 3.207031 -2.722656 3.578125 -2.296875 4.046875 -1.984375 C 4.523438 -1.671875 5.066406 -1.515625 5.671875 -1.515625 Z M 5.671875 -1.515625 "/></g></g></g><g fill="#9543a7" fill-opacity="1"><g transform="translate(264.926905, 227.946981)"><g><path d="M 6.484375 -10.359375 C 7.367188 -10.359375 8.164062 -10.132812 8.875 -9.6875 C 9.59375 -9.238281 10.15625 -8.613281 10.5625 -7.8125 C 10.96875 -7.007812 11.171875 -6.101562 11.171875 -5.09375 C 11.171875 -4.082031 10.96875 -3.175781 10.5625 -2.375 C 10.15625 -1.582031 9.59375 -0.957031 8.875 -0.5 C 8.164062 -0.0507812 7.382812 0.171875 6.53125 0.171875 C 5.851562 0.171875 5.222656 0.0234375 4.640625 -0.265625 C 4.054688 -0.566406 3.585938 -0.929688 3.234375 -1.359375 L 3.234375 2.953125 C 3.234375 3.210938 3.144531 3.429688 2.96875 3.609375 C 2.789062 3.796875 2.566406 3.890625 2.296875 3.890625 C 2.035156 3.890625 1.816406 3.800781 1.640625 3.625 C 1.460938 3.445312 1.375 3.222656 1.375 2.953125 L 1.375 -9.265625 C 1.375 -9.546875 1.457031 -9.773438 1.625 -9.953125 C 1.800781 -10.128906 2.023438 -10.21875 2.296875 -10.21875 C 2.566406 -10.21875 2.789062 -10.128906 2.96875 -9.953125 C 3.144531 -9.773438 3.234375 -9.546875 3.234375 -9.265625 L 3.234375 -8.703125 C 3.535156 -9.160156 3.984375 -9.550781 4.578125 -9.875 C 5.179688 -10.195312 5.816406 -10.359375 6.484375 -10.359375 Z M 6.28125 -1.53125 C 6.875 -1.53125 7.410156 -1.6875 7.890625 -2 C 8.367188 -2.3125 8.738281 -2.734375 9 -3.265625 C 9.269531 -3.804688 9.40625 -4.414062 9.40625 -5.09375 C 9.40625 -5.769531 9.269531 -6.375 9 -6.90625 C 8.738281 -7.445312 8.367188 -7.875 7.890625 -8.1875 C 7.410156 -8.5 6.875 -8.65625 6.28125 -8.65625 C 5.664062 -8.65625 5.117188 -8.5 4.640625 -8.1875 C 4.160156 -7.882812 3.785156 -7.460938 3.515625 -6.921875 C 3.253906 -6.378906 3.125 -5.769531 3.125 -5.09375 C 3.125 -4.414062 3.253906 -3.804688 3.515625 -3.265625 C 3.785156 -2.722656 4.160156 -2.296875 4.640625 -1.984375 C 5.117188 -1.679688 5.664062 -1.53125 6.28125 -1.53125 Z M 6.28125 -1.53125 "/></g></g></g><g fill="#9543a7" fill-opacity="1"><g transform="translate(286.087378, 227.946981)"><g><path d="M 6.484375 -10.359375 C 7.367188 -10.359375 8.164062 -10.132812 8.875 -9.6875 C 9.59375 -9.238281 10.15625 -8.613281 10.5625 -7.8125 C 10.96875 -7.007812 11.171875 -6.101562 11.171875 -5.09375 C 11.171875 -4.082031 10.96875 -3.175781 10.5625 -2.375 C 10.15625 -1.582031 9.59375 -0.957031 8.875 -0.5 C 8.164062 -0.0507812 7.382812 0.171875 6.53125 0.171875 C 5.851562 0.171875 5.222656 0.0234375 4.640625 -0.265625 C 4.054688 -0.566406 3.585938 -0.929688 3.234375 -1.359375 L 3.234375 2.953125 C 3.234375 3.210938 3.144531 3.429688 2.96875 3.609375 C 2.789062 3.796875 2.566406 3.890625 2.296875 3.890625 C 2.035156 3.890625 1.816406 3.800781 1.640625 3.625 C 1.460938 3.445312 1.375 3.222656 1.375 2.953125 L 1.375 -9.265625 C 1.375 -9.546875 1.457031 -9.773438 1.625 -9.953125 C 1.800781 -10.128906 2.023438 -10.21875 2.296875 -10.21875 C 2.566406 -10.21875 2.789062 -10.128906 2.96875 -9.953125 C 3.144531 -9.773438 3.234375 -9.546875 3.234375 -9.265625 L 3.234375 -8.703125 C 3.535156 -9.160156 3.984375 -9.550781 4.578125 -9.875 C 5.179688 -10.195312 5.816406 -10.359375 6.484375 -10.359375 Z M 6.28125 -1.53125 C 6.875 -1.53125 7.410156 -1.6875 7.890625 -2 C 8.367188 -2.3125 8.738281 -2.734375 9 -3.265625 C 9.269531 -3.804688 9.40625 -4.414062 9.40625 -5.09375 C 9.40625 -5.769531 9.269531 -6.375 9 -6.90625 C 8.738281 -7.445312 8.367188 -7.875 7.890625 -8.1875 C 7.410156 -8.5 6.875 -8.65625 6.28125 -8.65625 C 5.664062 -8.65625 5.117188 -8.5 4.640625 -8.1875 C 4.160156 -7.882812 3.785156 -7.460938 3.515625 -6.921875 C 3.253906 -6.378906 3.125 -5.769531 3.125 -5.09375 C 3.125 -4.414062 3.253906 -3.804688 3.515625 -3.265625 C 3.785156 -2.722656 4.160156 -2.296875 4.640625 -1.984375 C 5.117188 -1.679688 5.664062 -1.53125 6.28125 -1.53125 Z M 6.28125 -1.53125 "/></g></g></g><g fill="#e350a8" fill-opacity="1"><g transform="translate(28.711177, 202.376611)"><g><path d="M 49.671875 -16.921875 C 52.523438 -16.921875 55.296875 -17.351562 57.984375 -18.21875 C 60.671875 -19.082031 62.644531 -19.910156 63.90625 -20.703125 L 65.796875 -22 L 73.75 -6.078125 C 73.488281 -5.867188 73.125 -5.597656 72.65625 -5.265625 C 72.195312 -4.941406 71.117188 -4.332031 69.421875 -3.4375 C 67.734375 -2.539062 65.925781 -1.757812 64 -1.09375 C 62.070312 -0.425781 59.546875 0.171875 56.421875 0.703125 C 53.304688 1.234375 50.09375 1.5 46.78125 1.5 C 39.144531 1.5 31.910156 -0.375 25.078125 -4.125 C 18.242188 -7.875 12.738281 -13.035156 8.5625 -19.609375 C 4.382812 -26.179688 2.296875 -33.28125 2.296875 -40.90625 C 2.296875 -46.675781 3.519531 -52.210938 5.96875 -57.515625 C 8.425781 -62.828125 11.691406 -67.375 15.765625 -71.15625 C 19.847656 -74.945312 24.609375 -77.96875 30.046875 -80.21875 C 35.492188 -82.476562 41.070312 -83.609375 46.78125 -83.609375 C 52.082031 -83.609375 56.972656 -82.976562 61.453125 -81.71875 C 65.929688 -80.457031 69.101562 -79.195312 70.96875 -77.9375 L 73.75 -76.046875 L 65.796875 -60.109375 C 65.328125 -60.515625 64.628906 -61 63.703125 -61.5625 C 62.773438 -62.125 60.914062 -62.867188 58.125 -63.796875 C 55.34375 -64.722656 52.523438 -65.1875 49.671875 -65.1875 C 45.148438 -65.1875 41.097656 -64.457031 37.515625 -63 C 33.941406 -61.539062 31.109375 -59.613281 29.015625 -57.21875 C 26.921875 -54.832031 25.328125 -52.265625 24.234375 -49.515625 C 23.140625 -46.765625 22.59375 -43.960938 22.59375 -41.109375 C 22.59375 -34.867188 24.929688 -29.273438 29.609375 -24.328125 C 34.285156 -19.390625 40.972656 -16.921875 49.671875 -16.921875 Z M 49.671875 -16.921875 "/></g></g></g><g fill="#e350a8" fill-opacity="1"><g transform="translate(94.284256, 202.376611)"><g><path d="M 5.96875 0 L 5.96875 -85.59375 L 23.59375 -85.59375 L 23.59375 -45.6875 L 23.78125 -45.6875 C 28.363281 -50.257812 33.242188 -52.546875 38.421875 -52.546875 C 40.941406 -52.546875 43.445312 -52.210938 45.9375 -51.546875 C 48.425781 -50.890625 50.8125 -49.863281 53.09375 -48.46875 C 55.382812 -47.070312 57.242188 -45.097656 58.671875 -42.546875 C 60.097656 -39.992188 60.8125 -37.023438 60.8125 -33.640625 L 60.8125 0 L 43.203125 0 L 43.203125 -28.859375 C 43.203125 -31.515625 42.351562 -33.835938 40.65625 -35.828125 C 38.96875 -37.816406 36.765625 -38.8125 34.046875 -38.8125 C 31.390625 -38.8125 28.984375 -37.78125 26.828125 -35.71875 C 24.671875 -33.664062 23.59375 -31.378906 23.59375 -28.859375 L 23.59375 0 Z M 5.96875 0 "/></g></g></g><g fill="#e350a8" fill-opacity="1"><g transform="translate(150.702594, 202.376611)"><g><path d="M 9.453125 -6.3125 C 4.679688 -11.53125 2.296875 -17.921875 2.296875 -25.484375 C 2.296875 -33.046875 4.679688 -39.445312 9.453125 -44.6875 C 14.234375 -49.925781 20.304688 -52.546875 27.671875 -52.546875 C 34.441406 -52.546875 40.015625 -50.425781 44.390625 -46.1875 L 44.390625 -51.0625 L 62.015625 -51.0625 L 62.015625 0 L 44.59375 0 L 44.59375 -5.765625 L 44.390625 -5.765625 C 40.015625 -0.921875 34.441406 1.5 27.671875 1.5 C 20.304688 1.5 14.234375 -1.101562 9.453125 -6.3125 Z M 24.4375 -34.125 C 22.144531 -31.875 21 -28.988281 21 -25.46875 C 21 -21.957031 22.09375 -19.085938 24.28125 -16.859375 C 26.46875 -14.640625 29.351562 -13.53125 32.9375 -13.53125 C 36.394531 -13.53125 39.234375 -14.65625 41.453125 -16.90625 C 43.671875 -19.164062 44.78125 -22.023438 44.78125 -25.484375 C 44.78125 -28.992188 43.632812 -31.875 41.34375 -34.125 C 39.0625 -36.382812 36.257812 -37.515625 32.9375 -37.515625 C 29.5625 -37.515625 26.726562 -36.382812 24.4375 -34.125 Z M 24.4375 -34.125 "/></g></g></g><g fill="#e350a8" fill-opacity="1"><g transform="translate(209.310113, 202.376611)"><g><path d="M 80.71875 0 L 54.9375 0 L 24.6875 -34.828125 L 24.6875 0 L 5.96875 0 L 5.96875 -82.109375 L 24.6875 -82.109375 L 24.6875 -48.578125 L 52.84375 -82.109375 L 75.546875 -82.109375 L 42.5 -43.203125 Z M 80.71875 0 "/></g></g></g><g fill="#e350a8" fill-opacity="1"><g transform="translate(278.26646, 202.376611)"><g><path d="M 9.453125 -6.3125 C 4.679688 -11.53125 2.296875 -17.921875 2.296875 -25.484375 C 2.296875 -33.046875 4.679688 -39.445312 9.453125 -44.6875 C 14.234375 -49.925781 20.304688 -52.546875 27.671875 -52.546875 C 34.441406 -52.546875 40.015625 -50.425781 44.390625 -46.1875 L 44.390625 -51.0625 L 62.015625 -51.0625 L 62.015625 0 L 44.59375 0 L 44.59375 -5.765625 L 44.390625 -5.765625 C 40.015625 -0.921875 34.441406 1.5 27.671875 1.5 C 20.304688 1.5 14.234375 -1.101562 9.453125 -6.3125 Z M 24.4375 -34.125 C 22.144531 -31.875 21 -28.988281 21 -25.46875 C 21 -21.957031 22.09375 -19.085938 24.28125 -16.859375 C 26.46875 -14.640625 29.351562 -13.53125 32.9375 -13.53125 C 36.394531 -13.53125 39.234375 -14.65625 41.453125 -16.90625 C 43.671875 -19.164062 44.78125 -22.023438 44.78125 -25.484375 C 44.78125 -28.992188 43.632812 -31.875 41.34375 -34.125 C 39.0625 -36.382812 36.257812 -37.515625 32.9375 -37.515625 C 29.5625 -37.515625 26.726562 -36.382812 24.4375 -34.125 Z M 24.4375 -34.125 "/></g></g></g><g fill="#9543a7" fill-opacity="1"><g transform="translate(76.926964, 227.946981)"><g><path d="M 11.3125 -12.8125 C 11.625 -12.644531 11.78125 -12.382812 11.78125 -12.03125 C 11.78125 -11.800781 11.703125 -11.585938 11.546875 -11.390625 C 11.390625 -11.179688 11.175781 -11.078125 10.90625 -11.078125 C 10.71875 -11.078125 10.539062 -11.125 10.375 -11.21875 C 9.570312 -11.664062 8.707031 -11.890625 7.78125 -11.890625 C 6.800781 -11.890625 5.9375 -11.675781 5.1875 -11.25 C 4.445312 -10.820312 3.867188 -10.222656 3.453125 -9.453125 C 3.046875 -8.679688 2.84375 -7.796875 2.84375 -6.796875 C 2.84375 -5.722656 3.054688 -4.796875 3.484375 -4.015625 C 3.910156 -3.242188 4.5 -2.648438 5.25 -2.234375 C 6 -1.828125 6.84375 -1.625 7.78125 -1.625 C 8.738281 -1.625 9.601562 -1.859375 10.375 -2.328125 C 10.53125 -2.410156 10.703125 -2.453125 10.890625 -2.453125 C 11.171875 -2.453125 11.394531 -2.34375 11.5625 -2.125 C 11.71875 -1.925781 11.796875 -1.71875 11.796875 -1.5 C 11.796875 -1.34375 11.753906 -1.195312 11.671875 -1.0625 C 11.585938 -0.925781 11.472656 -0.816406 11.328125 -0.734375 C 10.828125 -0.453125 10.257812 -0.226562 9.625 -0.0625 C 9 0.101562 8.382812 0.1875 7.78125 0.1875 C 6.519531 0.1875 5.359375 -0.0859375 4.296875 -0.640625 C 3.242188 -1.203125 2.398438 -2.015625 1.765625 -3.078125 C 1.140625 -4.140625 0.828125 -5.378906 0.828125 -6.796875 C 0.828125 -8.109375 1.128906 -9.289062 1.734375 -10.34375 C 2.335938 -11.40625 3.164062 -12.238281 4.21875 -12.84375 C 5.28125 -13.445312 6.46875 -13.75 7.78125 -13.75 C 9.03125 -13.75 10.207031 -13.4375 11.3125 -12.8125 Z M 11.3125 -12.8125 "/></g></g></g><g fill="#9543a7" fill-opacity="1"><g transform="translate(98.553704, 227.946981)"><g><path d="M 6.453125 -10.359375 C 8.734375 -10.359375 9.875 -8.945312 9.875 -6.125 L 9.875 -0.9375 C 9.875 -0.675781 9.785156 -0.453125 9.609375 -0.265625 C 9.429688 -0.0859375 9.207031 0 8.9375 0 C 8.675781 0 8.457031 -0.0859375 8.28125 -0.265625 C 8.113281 -0.453125 8.03125 -0.675781 8.03125 -0.9375 L 8.03125 -6.125 C 8.03125 -7.8125 7.316406 -8.65625 5.890625 -8.65625 C 5.128906 -8.65625 4.492188 -8.410156 3.984375 -7.921875 C 3.484375 -7.429688 3.234375 -6.832031 3.234375 -6.125 L 3.234375 -0.9375 C 3.234375 -0.675781 3.144531 -0.453125 2.96875 -0.265625 C 2.789062 -0.0859375 2.566406 0 2.296875 0 C 2.023438 0 1.800781 -0.0859375 1.625 -0.265625 C 1.457031 -0.441406 1.375 -0.664062 1.375 -0.9375 L 1.375 -13.453125 C 1.375 -13.710938 1.460938 -13.929688 1.640625 -14.109375 C 1.816406 -14.296875 2.035156 -14.390625 2.296875 -14.390625 C 2.566406 -14.390625 2.789062 -14.296875 2.96875 -14.109375 C 3.144531 -13.929688 3.234375 -13.710938 3.234375 -13.453125 L 3.234375 -8.53125 C 3.554688 -9.039062 4.007812 -9.472656 4.59375 -9.828125 C 5.175781 -10.179688 5.796875 -10.359375 6.453125 -10.359375 Z M 6.453125 -10.359375 "/></g></g></g><g fill="#9543a7" fill-opacity="1"><g transform="translate(119.034197, 227.946981)"><g><path d="M 9.640625 -10.328125 C 9.910156 -10.328125 10.132812 -10.238281 10.3125 -10.0625 C 10.488281 -9.882812 10.578125 -9.65625 10.578125 -9.375 L 10.578125 -0.9375 C 10.578125 -0.675781 10.488281 -0.453125 10.3125 -0.265625 C 10.132812 -0.0859375 9.910156 0 9.640625 0 C 9.367188 0 9.148438 -0.0859375 8.984375 -0.265625 C 8.816406 -0.441406 8.734375 -0.664062 8.734375 -0.9375 L 8.734375 -1.4375 C 8.390625 -0.988281 7.925781 -0.601562 7.34375 -0.28125 C 6.757812 0.03125 6.132812 0.1875 5.46875 0.1875 C 4.582031 0.1875 3.78125 -0.0351562 3.0625 -0.484375 C 2.34375 -0.941406 1.78125 -1.570312 1.375 -2.375 C 0.96875 -3.1875 0.765625 -4.097656 0.765625 -5.109375 C 0.765625 -6.117188 0.96875 -7.03125 1.375 -7.84375 C 1.78125 -8.65625 2.335938 -9.285156 3.046875 -9.734375 C 3.765625 -10.191406 4.550781 -10.421875 5.40625 -10.421875 C 6.09375 -10.421875 6.726562 -10.273438 7.3125 -9.984375 C 7.90625 -9.703125 8.378906 -9.34375 8.734375 -8.90625 L 8.734375 -9.375 C 8.734375 -9.644531 8.816406 -9.867188 8.984375 -10.046875 C 9.148438 -10.234375 9.367188 -10.328125 9.640625 -10.328125 Z M 5.671875 -1.515625 C 6.285156 -1.515625 6.828125 -1.671875 7.296875 -1.984375 C 7.773438 -2.296875 8.144531 -2.722656 8.40625 -3.265625 C 8.675781 -3.804688 8.8125 -4.421875 8.8125 -5.109375 C 8.8125 -5.785156 8.675781 -6.394531 8.40625 -6.9375 C 8.144531 -7.476562 7.773438 -7.90625 7.296875 -8.21875 C 6.828125 -8.539062 6.285156 -8.703125 5.671875 -8.703125 C 5.066406 -8.703125 4.523438 -8.546875 4.046875 -8.234375 C 3.578125 -7.929688 3.207031 -7.503906 2.9375 -6.953125 C 2.675781 -6.410156 2.546875 -5.796875 2.546875 -5.109375 C 2.546875 -4.421875 2.675781 -3.804688 2.9375 -3.265625 C 3.207031 -2.722656 3.578125 -2.296875 4.046875 -1.984375 C 4.523438 -1.671875 5.066406 -1.515625 5.671875 -1.515625 Z M 5.671875 -1.515625 "/></g></g></g><g fill="#9543a7" fill-opacity="1"><g transform="translate(140.194676, 227.946981)"><g><path d="M 4.140625 -8.375 L 4.140625 -2.578125 C 4.140625 -1.929688 4.429688 -1.609375 5.015625 -1.609375 C 5.109375 -1.609375 5.234375 -1.628906 5.390625 -1.671875 C 5.546875 -1.722656 5.664062 -1.75 5.75 -1.75 C 5.914062 -1.75 6.054688 -1.675781 6.171875 -1.53125 C 6.296875 -1.394531 6.359375 -1.210938 6.359375 -0.984375 C 6.359375 -0.710938 6.203125 -0.476562 5.890625 -0.28125 C 5.578125 -0.09375 5.226562 0 4.84375 0 C 4.414062 0 4.019531 -0.0390625 3.65625 -0.125 C 3.300781 -0.21875 2.984375 -0.445312 2.703125 -0.8125 C 2.429688 -1.1875 2.296875 -1.75 2.296875 -2.5 L 2.296875 -8.375 L 1.171875 -8.375 C 0.921875 -8.375 0.710938 -8.453125 0.546875 -8.609375 C 0.390625 -8.773438 0.3125 -8.984375 0.3125 -9.234375 C 0.3125 -9.484375 0.390625 -9.679688 0.546875 -9.828125 C 0.710938 -9.984375 0.921875 -10.0625 1.171875 -10.0625 L 2.296875 -10.0625 L 2.296875 -11.703125 C 2.296875 -11.960938 2.378906 -12.179688 2.546875 -12.359375 C 2.722656 -12.546875 2.953125 -12.640625 3.234375 -12.640625 C 3.484375 -12.640625 3.695312 -12.546875 3.875 -12.359375 C 4.050781 -12.179688 4.140625 -11.960938 4.140625 -11.703125 L 4.140625 -10.0625 L 5.75 -10.0625 C 6 -10.0625 6.203125 -9.976562 6.359375 -9.8125 C 6.523438 -9.65625 6.609375 -9.457031 6.609375 -9.21875 C 6.609375 -8.96875 6.523438 -8.765625 6.359375 -8.609375 C 6.203125 -8.453125 6 -8.375 5.75 -8.375 Z M 4.140625 -8.375 "/></g></g></g><g fill="#9543a7" fill-opacity="1"><g transform="translate(156.809046, 227.946981)"><g><path d="M 4.140625 -8.375 L 4.140625 -2.578125 C 4.140625 -1.929688 4.429688 -1.609375 5.015625 -1.609375 C 5.109375 -1.609375 5.234375 -1.628906 5.390625 -1.671875 C 5.546875 -1.722656 5.664062 -1.75 5.75 -1.75 C 5.914062 -1.75 6.054688 -1.675781 6.171875 -1.53125 C 6.296875 -1.394531 6.359375 -1.210938 6.359375 -0.984375 C 6.359375 -0.710938 6.203125 -0.476562 5.890625 -0.28125 C 5.578125 -0.09375 5.226562 0 4.84375 0 C 4.414062 0 4.019531 -0.0390625 3.65625 -0.125 C 3.300781 -0.21875 2.984375 -0.445312 2.703125 -0.8125 C 2.429688 -1.1875 2.296875 -1.75 2.296875 -2.5 L 2.296875 -8.375 L 1.171875 -8.375 C 0.921875 -8.375 0.710938 -8.453125 0.546875 -8.609375 C 0.390625 -8.773438 0.3125 -8.984375 0.3125 -9.234375 C 0.3125 -9.484375 0.390625 -9.679688 0.546875 -9.828125 C 0.710938 -9.984375 0.921875 -10.0625 1.171875 -10.0625 L 2.296875 -10.0625 L 2.296875 -11.703125 C 2.296875 -11.960938 2.378906 -12.179688 2.546875 -12.359375 C 2.722656 -12.546875 2.953125 -12.640625 3.234375 -12.640625 C 3.484375 -12.640625 3.695312 -12.546875 3.875 -12.359375 C 4.050781 -12.179688 4.140625 -11.960938 4.140625 -11.703125 L 4.140625 -10.0625 L 5.75 -10.0625 C 6 -10.0625 6.203125 -9.976562 6.359375 -9.8125 C 6.523438 -9.65625 6.609375 -9.457031 6.609375 -9.21875 C 6.609375 -8.96875 6.523438 -8.765625 6.359375 -8.609375 C 6.203125 -8.453125 6 -8.375 5.75 -8.375 Z M 4.140625 -8.375 "/></g></g></g><g fill="#9543a7" fill-opacity="1"><g transform="translate(173.423411, 227.946981)"><g><path d="M 3.125 -0.9375 C 3.125 -0.675781 3.035156 -0.453125 2.859375 -0.265625 C 2.691406 -0.0859375 2.472656 0 2.203125 0 C 1.941406 0 1.722656 -0.0859375 1.546875 -0.265625 C 1.367188 -0.453125 1.28125 -0.675781 1.28125 -0.9375 L 1.28125 -9.34375 C 1.28125 -9.601562 1.367188 -9.820312 1.546875 -10 C 1.722656 -10.1875 1.941406 -10.28125 2.203125 -10.28125 C 2.472656 -10.28125 2.691406 -10.1875 2.859375 -10 C 3.035156 -9.820312 3.125 -9.601562 3.125 -9.34375 Z M 2.203125 -11.5625 C 1.828125 -11.5625 1.554688 -11.628906 1.390625 -11.765625 C 1.222656 -11.898438 1.140625 -12.117188 1.140625 -12.421875 L 1.140625 -12.734375 C 1.140625 -13.046875 1.226562 -13.265625 1.40625 -13.390625 C 1.582031 -13.523438 1.851562 -13.59375 2.21875 -13.59375 C 2.582031 -13.59375 2.84375 -13.519531 3 -13.375 C 3.164062 -13.238281 3.25 -13.023438 3.25 -12.734375 L 3.25 -12.421875 C 3.25 -12.109375 3.160156 -11.882812 2.984375 -11.75 C 2.816406 -11.625 2.554688 -11.5625 2.203125 -11.5625 Z M 2.203125 -11.5625 "/></g></g></g><g fill="#9543a7" fill-opacity="1"><g transform="translate(187.065318, 227.946981)"><g><path d="M 6.5625 -10.421875 C 8.894531 -10.421875 10.0625 -9.019531 10.0625 -6.21875 L 10.0625 -0.9375 C 10.0625 -0.675781 9.972656 -0.453125 9.796875 -0.265625 C 9.628906 -0.0859375 9.410156 0 9.140625 0 C 8.878906 0 8.660156 -0.0859375 8.484375 -0.265625 C 8.304688 -0.453125 8.21875 -0.675781 8.21875 -0.9375 L 8.21875 -6.203125 C 8.21875 -6.960938 8.039062 -7.566406 7.6875 -8.015625 C 7.34375 -8.472656 6.773438 -8.703125 5.984375 -8.703125 C 5.460938 -8.703125 4.992188 -8.585938 4.578125 -8.359375 C 4.160156 -8.140625 3.832031 -7.835938 3.59375 -7.453125 C 3.351562 -7.066406 3.234375 -6.648438 3.234375 -6.203125 L 3.234375 -0.9375 C 3.234375 -0.675781 3.144531 -0.453125 2.96875 -0.265625 C 2.789062 -0.0859375 2.566406 0 2.296875 0 C 2.023438 0 1.800781 -0.0859375 1.625 -0.265625 C 1.457031 -0.441406 1.375 -0.664062 1.375 -0.9375 L 1.375 -9.25 C 1.375 -9.507812 1.460938 -9.726562 1.640625 -9.90625 C 1.816406 -10.09375 2.035156 -10.1875 2.296875 -10.1875 C 2.566406 -10.1875 2.789062 -10.09375 2.96875 -9.90625 C 3.144531 -9.726562 3.234375 -9.507812 3.234375 -9.25 L 3.234375 -8.578125 C 3.566406 -9.085938 4.035156 -9.519531 4.640625 -9.875 C 5.242188 -10.238281 5.882812 -10.421875 6.5625 -10.421875 Z M 6.5625 -10.421875 "/></g></g></g><g fill="#9543a7" fill-opacity="1"><g transform="translate(207.74009, 227.946981)"><g><path d="M 9.890625 -10.328125 C 10.160156 -10.328125 10.382812 -10.238281 10.5625 -10.0625 C 10.738281 -9.882812 10.828125 -9.65625 10.828125 -9.375 L 10.828125 -0.8125 C 10.828125 0.238281 10.601562 1.113281 10.15625 1.8125 C 9.707031 2.519531 9.097656 3.039062 8.328125 3.375 C 7.566406 3.71875 6.707031 3.890625 5.75 3.890625 C 5.226562 3.890625 4.617188 3.796875 3.921875 3.609375 C 3.234375 3.429688 2.796875 3.242188 2.609375 3.046875 C 2.203125 2.835938 2 2.582031 2 2.28125 C 2 2.195312 2.023438 2.09375 2.078125 1.96875 C 2.222656 1.644531 2.460938 1.484375 2.796875 1.484375 C 2.960938 1.484375 3.144531 1.519531 3.34375 1.59375 C 4.375 2 5.179688 2.203125 5.765625 2.203125 C 6.804688 2.203125 7.601562 1.953125 8.15625 1.453125 C 8.707031 0.953125 8.984375 0.265625 8.984375 -0.609375 L 8.984375 -1.65625 C 8.710938 -1.144531 8.253906 -0.707031 7.609375 -0.34375 C 6.960938 0.0078125 6.285156 0.1875 5.578125 0.1875 C 4.679688 0.1875 3.863281 -0.0351562 3.125 -0.484375 C 2.382812 -0.941406 1.804688 -1.570312 1.390625 -2.375 C 0.972656 -3.1875 0.765625 -4.097656 0.765625 -5.109375 C 0.765625 -6.117188 0.972656 -7.03125 1.390625 -7.84375 C 1.804688 -8.65625 2.378906 -9.285156 3.109375 -9.734375 C 3.847656 -10.191406 4.660156 -10.421875 5.546875 -10.421875 C 6.253906 -10.421875 6.914062 -10.257812 7.53125 -9.9375 C 8.144531 -9.613281 8.628906 -9.21875 8.984375 -8.75 L 8.984375 -9.375 C 8.984375 -9.644531 9.066406 -9.867188 9.234375 -10.046875 C 9.398438 -10.234375 9.617188 -10.328125 9.890625 -10.328125 Z M 5.796875 -1.515625 C 6.429688 -1.515625 6.992188 -1.664062 7.484375 -1.96875 C 7.972656 -2.28125 8.359375 -2.707031 8.640625 -3.25 C 8.921875 -3.800781 9.0625 -4.421875 9.0625 -5.109375 C 9.0625 -5.796875 8.921875 -6.410156 8.640625 -6.953125 C 8.359375 -7.503906 7.972656 -7.929688 7.484375 -8.234375 C 6.992188 -8.546875 6.429688 -8.703125 5.796875 -8.703125 C 5.171875 -8.703125 4.609375 -8.546875 4.109375 -8.234375 C 3.617188 -7.929688 3.234375 -7.503906 2.953125 -6.953125 C 2.679688 -6.398438 2.546875 -5.785156 2.546875 -5.109375 C 2.546875 -4.429688 2.679688 -3.816406 2.953125 -3.265625 C 3.234375 -2.722656 3.617188 -2.296875 4.109375 -1.984375 C 4.609375 -1.671875 5.171875 -1.515625 5.796875 -1.515625 Z M 5.796875 -1.515625 "/></g></g></g><g fill="#9543a7" fill-opacity="1"><g transform="translate(229.153123, 227.946981)"><g/></g></g><g fill="#9543a7" fill-opacity="1"><g transform="translate(243.766432, 227.946981)"><g><path d="M 9.640625 -10.328125 C 9.910156 -10.328125 10.132812 -10.238281 10.3125 -10.0625 C 10.488281 -9.882812 10.578125 -9.65625 10.578125 -9.375 L 10.578125 -0.9375 C 10.578125 -0.675781 10.488281 -0.453125 10.3125 -0.265625 C 10.132812 -0.0859375 9.910156 0 9.640625 0 C 9.367188 0 9.148438 -0.0859375 8.984375 -0.265625 C 8.816406 -0.441406 8.734375 -0.664062 8.734375 -0.9375 L 8.734375 -1.4375 C 8.390625 -0.988281 7.925781 -0.601562 7.34375 -0.28125 C 6.757812 0.03125 6.132812 0.1875 5.46875 0.1875 C 4.582031 0.1875 3.78125 -0.0351562 3.0625 -0.484375 C 2.34375 -0.941406 1.78125 -1.570312 1.375 -2.375 C 0.96875 -3.1875 0.765625 -4.097656 0.765625 -5.109375 C 0.765625 -6.117188 0.96875 -7.03125 1.375 -7.84375 C 1.78125 -8.65625 2.335938 -9.285156 3.046875 -9.734375 C 3.765625 -10.191406 4.550781 -10.421875 5.40625 -10.421875 C 6.09375 -10.421875 6.726562 -10.273438 7.3125 -9.984375 C 7.90625 -9.703125 8.378906 -9.34375 8.734375 -8.90625 L 8.734375 -9.375 C 8.734375 -9.644531 8.816406 -9.867188 8.984375 -10.046875 C 9.148438 -10.234375 9.367188 -10.328125 9.640625 -10.328125 Z M 5.671875 -1.515625 C 6.285156 -1.515625 6.828125 -1.671875 7.296875 -1.984375 C 7.773438 -2.296875 8.144531 -2.722656 8.40625 -3.265625 C 8.675781 -3.804688 8.8125 -4.421875 8.8125 -5.109375 C 8.8125 -5.785156 8.675781 -6.394531 8.40625 -6.9375 C 8.144531 -7.476562 7.773438 -7.90625 7.296875 -8.21875 C 6.828125 -8.539062 6.285156 -8.703125 5.671875 -8.703125 C 5.066406 -8.703125 4.523438 -8.546875 4.046875 -8.234375 C 3.578125 -7.929688 3.207031 -7.503906 2.9375 -6.953125 C 2.675781 -6.410156 2.546875 -5.796875 2.546875 -5.109375 C 2.546875 -4.421875 2.675781 -3.804688 2.9375 -3.265625 C 3.207031 -2.722656 3.578125 -2.296875 4.046875 -1.984375 C 4.523438 -1.671875 5.066406 -1.515625 5.671875 -1.515625 Z M 5.671875 -1.515625 "/></g></g></g><g fill="#9543a7" fill-opacity="1"><g transform="translate(264.926905, 227.946981)"><g><path d="M 6.484375 -10.359375 C 7.367188 -10.359375 8.164062 -10.132812 8.875 -9.6875 C 9.59375 -9.238281 10.15625 -8.613281 10.5625 -7.8125 C 10.96875 -7.007812 11.171875 -6.101562 11.171875 -5.09375 C 11.171875 -4.082031 10.96875 -3.175781 10.5625 -2.375 C 10.15625 -1.582031 9.59375 -0.957031 8.875 -0.5 C 8.164062 -0.0507812 7.382812 0.171875 6.53125 0.171875 C 5.851562 0.171875 5.222656 0.0234375 4.640625 -0.265625 C 4.054688 -0.566406 3.585938 -0.929688 3.234375 -1.359375 L 3.234375 2.953125 C 3.234375 3.210938 3.144531 3.429688 2.96875 3.609375 C 2.789062 3.796875 2.566406 3.890625 2.296875 3.890625 C 2.035156 3.890625 1.816406 3.800781 1.640625 3.625 C 1.460938 3.445312 1.375 3.222656 1.375 2.953125 L 1.375 -9.265625 C 1.375 -9.546875 1.457031 -9.773438 1.625 -9.953125 C 1.800781 -10.128906 2.023438 -10.21875 2.296875 -10.21875 C 2.566406 -10.21875 2.789062 -10.128906 2.96875 -9.953125 C 3.144531 -9.773438 3.234375 -9.546875 3.234375 -9.265625 L 3.234375 -8.703125 C 3.535156 -9.160156 3.984375 -9.550781 4.578125 -9.875 C 5.179688 -10.195312 5.816406 -10.359375 6.484375 -10.359375 Z M 6.28125 -1.53125 C 6.875 -1.53125 7.410156 -1.6875 7.890625 -2 C 8.367188 -2.3125 8.738281 -2.734375 9 -3.265625 C 9.269531 -3.804688 9.40625 -4.414062 9.40625 -5.09375 C 9.40625 -5.769531 9.269531 -6.375 9 -6.90625 C 8.738281 -7.445312 8.367188 -7.875 7.890625 -8.1875 C 7.410156 -8.5 6.875 -8.65625 6.28125 -8.65625 C 5.664062 -8.65625 5.117188 -8.5 4.640625 -8.1875 C 4.160156 -7.882812 3.785156 -7.460938 3.515625 -6.921875 C 3.253906 -6.378906 3.125 -5.769531 3.125 -5.09375 C 3.125 -4.414062 3.253906 -3.804688 3.515625 -3.265625 C 3.785156 -2.722656 4.160156 -2.296875 4.640625 -1.984375 C 5.117188 -1.679688 5.664062 -1.53125 6.28125 -1.53125 Z M 6.28125 -1.53125 "/></g></g></g><g fill="#9543a7" fill-opacity="1"><g transform="translate(286.087378, 227.946981)"><g><path d="M 6.484375 -10.359375 C 7.367188 -10.359375 8.164062 -10.132812 8.875 -9.6875 C 9.59375 -9.238281 10.15625 -8.613281 10.5625 -7.8125 C 10.96875 -7.007812 11.171875 -6.101562 11.171875 -5.09375 C 11.171875 -4.082031 10.96875 -3.175781 10.5625 -2.375 C 10.15625 -1.582031 9.59375 -0.957031 8.875 -0.5 C 8.164062 -0.0507812 7.382812 0.171875 6.53125 0.171875 C 5.851562 0.171875 5.222656 0.0234375 4.640625 -0.265625 C 4.054688 -0.566406 3.585938 -0.929688 3.234375 -1.359375 L 3.234375 2.953125 C 3.234375 3.210938 3.144531 3.429688 2.96875 3.609375 C 2.789062 3.796875 2.566406 3.890625 2.296875 3.890625 C 2.035156 3.890625 1.816406 3.800781 1.640625 3.625 C 1.460938 3.445312 1.375 3.222656 1.375 2.953125 L 1.375 -9.265625 C 1.375 -9.546875 1.457031 -9.773438 1.625 -9.953125 C 1.800781 -10.128906 2.023438 -10.21875 2.296875 -10.21875 C 2.566406 -10.21875 2.789062 -10.128906 2.96875 -9.953125 C 3.144531 -9.773438 3.234375 -9.546875 3.234375 -9.265625 L 3.234375 -8.703125 C 3.535156 -9.160156 3.984375 -9.550781 4.578125 -9.875 C 5.179688 -10.195312 5.816406 -10.359375 6.484375 -10.359375 Z M 6.28125 -1.53125 C 6.875 -1.53125 7.410156 -1.6875 7.890625 -2 C 8.367188 -2.3125 8.738281 -2.734375 9 -3.265625 C 9.269531 -3.804688 9.40625 -4.414062 9.40625 -5.09375 C 9.40625 -5.769531 9.269531 -6.375 9 -6.90625 C 8.738281 -7.445312 8.367188 -7.875 7.890625 -8.1875 C 7.410156 -8.5 6.875 -8.65625 6.28125 -8.65625 C 5.664062 -8.65625 5.117188 -8.5 4.640625 -8.1875 C 4.160156 -7.882812 3.785156 -7.460938 3.515625 -6.921875 C 3.253906 -6.378906 3.125 -5.769531 3.125 -5.09375 C 3.125 -4.414062 3.253906 -3.804688 3.515625 -3.265625 C 3.785156 -2.722656 4.160156 -2.296875 4.640625 -1.984375 C 5.117188 -1.679688 5.664062 -1.53125 6.28125 -1.53125 Z M 6.28125 -1.53125 "/></g></g></g></svg>